ModelForces
version=1
nRows=4
nColumns=155
inDegrees=no

This file contains the forces exerted on a model during a simulation.

A force is a generalized force, meaning that it can be either a force (N) or a torque (Nm).

Units are S.I. units (second, meters, Newtons, ...)
Angles are in degrees.

endheader
time	glut_med1_r	glut_med2_r	glut_med3_r	glut_min1_r	glut_min2_r	glut_min3_r	semimem_r	semiten_r	bifemlh_r	bifemsh_r	sar_r	add_long_r	add_brev_r	add_mag1_r	add_mag2_r	add_mag3_r	tfl_r	pect_r	grac_r	glut_max1_r	glut_max2_r	glut_max3_r	iliacus_r	psoas_r	quad_fem_r	gem_r	peri_r	rect_fem_r	vas_med_r	vas_int_r	vas_lat_r	med_gas_r	lat_gas_r	soleus_r	tib_post_r	flex_dig_r	flex_hal_r	tib_ant_r	per_brev_r	per_long_r	per_tert_r	ext_dig_r	ext_hal_r	glut_med1_l	glut_med2_l	glut_med3_l	glut_min1_l	glut_min2_l	glut_min3_l	semimem_l	semiten_l	bifemlh_l	bifemsh_l	sar_l	add_long_l	add_brev_l	add_mag1_l	add_mag2_l	add_mag3_l	tfl_l	pect_l	grac_l	glut_max1_l	glut_max2_l	glut_max3_l	iliacus_l	psoas_l	quad_fem_l	gem_l	peri_l	rect_fem_l	vas_med_l	vas_int_l	vas_lat_l	med_gas_l	lat_gas_l	soleus_l	tib_post_l	flex_dig_l	flex_hal_l	tib_ant_l	per_brev_l	per_long_l	per_tert_l	ext_dig_l	ext_hal_l	ercspn_r	ercspn_l	intobl_r	intobl_l	extobl_r	extobl_l	femur_lat_meniscii_r.femur_lat_r.force.X	femur_lat_meniscii_r.femur_lat_r.force.Y	femur_lat_meniscii_r.femur_lat_r.force.Z	femur_lat_meniscii_r.femur_lat_r.torque.X	femur_lat_meniscii_r.femur_lat_r.torque.Y	femur_lat_meniscii_r.femur_lat_r.torque.Z	femur_lat_meniscii_r.meniscus_lat_r.force.X	femur_lat_meniscii_r.meniscus_lat_r.force.Y	femur_lat_meniscii_r.meniscus_lat_r.force.Z	femur_lat_meniscii_r.meniscus_lat_r.torque.X	femur_lat_meniscii_r.meniscus_lat_r.torque.Y	femur_lat_meniscii_r.meniscus_lat_r.torque.Z	femur_med_meniscii_r.femur_med_r.force.X	femur_med_meniscii_r.femur_med_r.force.Y	femur_med_meniscii_r.femur_med_r.force.Z	femur_med_meniscii_r.femur_med_r.torque.X	femur_med_meniscii_r.femur_med_r.torque.Y	femur_med_meniscii_r.femur_med_r.torque.Z	femur_med_meniscii_r.meniscus_med_r.force.X	femur_med_meniscii_r.meniscus_med_r.force.Y	femur_med_meniscii_r.meniscus_med_r.force.Z	femur_med_meniscii_r.meniscus_med_r.torque.X	femur_med_meniscii_r.meniscus_med_r.torque.Y	femur_med_meniscii_r.meniscus_med_r.torque.Z	femur_med_tibia_r.tibia_upper_r.force.X	femur_med_tibia_r.tibia_upper_r.force.Y	femur_med_tibia_r.tibia_upper_r.force.Z	femur_med_tibia_r.tibia_upper_r.torque.X	femur_med_tibia_r.tibia_upper_r.torque.Y	femur_med_tibia_r.tibia_upper_r.torque.Z	femur_med_tibia_r.femur_med_r.force.X	femur_med_tibia_r.femur_med_r.force.Y	femur_med_tibia_r.femur_med_r.force.Z	femur_med_tibia_r.femur_med_r.torque.X	femur_med_tibia_r.femur_med_r.torque.Y	femur_med_tibia_r.femur_med_r.torque.Z	femur_lat_tibia_r.tibia_upper_r.force.X	femur_lat_tibia_r.tibia_upper_r.force.Y	femur_lat_tibia_r.tibia_upper_r.force.Z	femur_lat_tibia_r.tibia_upper_r.torque.X	femur_lat_tibia_r.tibia_upper_r.torque.Y	femur_lat_tibia_r.tibia_upper_r.torque.Z	femur_lat_tibia_r.femur_lat_r.force.X	femur_lat_tibia_r.femur_lat_r.force.Y	femur_lat_tibia_r.femur_lat_r.force.Z	femur_lat_tibia_r.femur_lat_r.torque.X	femur_lat_tibia_r.femur_lat_r.torque.Y	femur_lat_tibia_r.femur_lat_r.torque.Z	aACL_R	pACL_R	aPCL_R	pPCL_R	aMCL_R	mMCL_R	pMCL_R	aLCL_R	mLCL_R	pLCL_R	aPCL_L	pPCL_L	aMCL_L	aLCL_L
      0.20936895	      9.71940282	      7.15318297	      7.67913613	      3.32396962	      3.90095711	      4.10926856	      0.00000000	    164.14504207	    182.23957005	    339.68022112	    122.60053643	      7.10643101	      5.16617317	      3.67953315	      3.11041822	      5.17551503	      3.37213586	      2.80278779	     92.89561191	      4.61653092	      7.02026596	      5.26231342	     25.35707039	     16.03408514	      4.55602350	      3.29570835	      5.57512505	    113.58605693	     40.82753868	    385.78168665	     55.96363422	      0.00000000	      0.00000000	      0.00000000	      0.00000000	      0.00000000	      0.00000000	     35.77710023	      1.29842041	      3.02415467	     22.75880346	     48.80878430	     11.93576913	      9.71940282	      7.15318297	      7.67913613	      3.32396962	      3.90095711	      4.10926856	     10.58335427	      5.24633455	     10.26750119	      9.06674417	      1.89789089	      7.10643101	      5.16617317	      3.67953315	      3.11041822	      5.17551503	      4.83273399	      2.80278779	      1.95415084	      4.61653092	      7.02026596	      5.26231342	     25.35707039	     16.03408514	      4.55602350	      3.29570835	      5.57512505	     14.21007615	      0.00000000	      0.00000000	      0.00000000	     19.33988127	      9.03489430	     43.00880678	     47.28757943	      4.18325529	      3.64338720	     11.13426579	      5.89176537	     15.83792317	      2.48023505	      7.87315129	      2.52165202	     31.27701498	     31.27701498	     11.47956370	     11.47956370	     29.03495085	     29.03495085	    107.53360728	     85.35920151	     17.09426894	     -8.84311182	      2.59439888	     42.43217107	   -107.53360728	    -85.35920151	    -17.09426894	      2.33093313	     -3.34688604	      2.29099155	      0.03541031	      0.00168995	     -0.02239484	      0.00892504	     -0.00055189	      0.01407000	     -0.03541031	     -0.00168995	      0.02239484	     -0.00008867	      0.00106420	     -0.00005943	   -883.22810639	   -390.29763380	    304.82932589	     -8.33866750	     21.24290840	      3.23455385	    883.22810639	    390.29763380	   -304.82932589	    129.60224393	    -15.34720385	    355.66949256	   -305.38485938	   -148.18767156	    -90.97074967	      4.83892595	    -10.87779619	      1.48180157	    305.38485938	    148.18767156	     90.97074967	    -40.31694682	      7.59010204	    122.97189586	     -2.86043273	      0.00000000	    975.10551128	    635.20266061	     32.56923172	     20.18594009	      0.00000000	      0.00000000	      0.00000000	      0.00000000	      0.00000000	      0.00000000	      0.00000001	      0.00000000
      0.20940028	      9.71851096	      7.15257355	      7.67847380	      3.32369835	      3.90066159	      4.10889150	      0.00000000	    164.11164899	    182.18606855	    339.38603892	    122.56624234	      7.10581843	      5.16575549	      3.67922197	      3.11014841	      5.17502577	      3.37309407	      2.80255748	     92.86564088	      4.61613679	      7.01966504	      5.26185531	     25.35595508	     16.03281658	      4.55564349	      3.29552549	      5.57463730	    113.73645972	     40.76703662	    170.00574303	     55.88898694	      0.00000000	      0.00000000	      0.00000000	      0.00000000	      0.00000000	      0.00000000	     35.77995653	      1.29595904	      3.02065098	     22.75094743	     48.79622275	     11.93198370	      9.71851096	      7.15257355	      7.67847380	      3.32369835	      3.90066159	      4.10889150	     10.58389471	      5.24585600	     10.26646433	      9.06598723	      1.89773673	      7.10581843	      5.16575549	      3.67922197	      3.11014841	      5.17502577	      4.83243120	      2.80255748	      1.95398930	      4.61613679	      7.01966504	      5.26185531	     25.35595508	     16.03281658	      4.55564349	      3.29552549	      5.57463730	     14.20863445	      0.00000000	      0.00000000	      0.00000000	     19.33838385	      9.03415169	     43.00435217	     47.28562711	      4.18231637	      3.64254970	     11.13317164	      5.89114333	     15.83664248	      2.48003930	      7.87271125	      2.52152230	     31.27445665	     31.27445665	     11.47854472	     11.47854472	     29.03403217	     29.03403217	    106.64509034	     83.72547833	     16.43272720	     -8.52510571	      2.56898547	     42.09337446	   -106.64509034	    -83.72547833	    -16.43272720	      2.26936227	     -3.30121439	      2.23587966	      0.03426228	      0.00167950	     -0.02169536	      0.00864662	     -0.00053423	      0.01361334	     -0.03426228	     -0.00167950	      0.02169536	     -0.00008601	      0.00103070	     -0.00005561	   -880.33496297	   -389.39908970	    303.68303277	     -8.30986016	     21.16688062	      3.24829879	    880.33496297	    389.39908970	   -303.68303277	    129.12077659	    -15.29399181	    354.49632134	   -304.54518547	   -148.16006470	    -90.86672487	      4.83581474	    -10.85417212	      1.49676575	    304.54518547	    148.16006470	     90.86672487	    -40.27335304	      7.57124083	    122.62712009	     -2.91640232	      0.00000000	    975.78040618	    636.29658336	     32.88355590	     20.56572978	      0.00000000	      0.00000000	      0.00000000	      0.00000000	      0.00000000	      0.00000000	      0.00000001	      0.00000000
      0.20949938	      9.71569266	      7.15064779	      7.67638087	      3.32284114	      3.89972774	      4.10769999	      0.00000000	    164.01072605	    182.01860542	    338.50747658	    122.46562106	      7.10388269	      5.16443559	      3.67823864	      3.10929584	      5.17347972	      3.37616642	      2.80182970	     92.77667776	      4.61489136	      7.01776614	      5.26040770	     25.35243074	     16.02880800	      4.55444268	      3.29494765	      5.57309519	    114.02792052	     40.58771972	     89.47108642	     55.69073521	      0.00000000	      0.00000000	      0.00000000	      0.00000000	      0.00000000	      0.00000000	     35.78848619	      1.28825631	      3.00961480	     22.72617632	     48.75640176	     11.91998586	      9.71569266	      7.15064779	      7.67638087	      3.32284114	      3.89972774	      4.10769999	     10.58558426	      5.24434382	     10.26318769	      9.06359530	      1.89724957	      7.10388269	      5.16443559	      3.67823864	      3.10929584	      5.17347972	      4.83147439	      2.80182970	      1.95347884	      4.61489136	      7.01776614	      5.26040770	     25.35243074	     16.02880800	      4.55444268	      3.29494765	      5.57309519	     14.20407866	      0.00000000	      0.00000000	      0.00000000	     19.33364820	      9.03180340	     42.99027316	     47.27945745	      4.17934876	      3.63990327	     11.12971406	      5.88917762	     15.83259505	      2.47942076	      7.87131904	      2.52111162	     31.26637235	     31.26637235	     11.47532477	     11.47532477	     29.03112918	     29.03112918	    107.35544394	     83.74350331	     15.71467420	     -8.23571664	      2.57826430	     42.37907056	   -107.35544394	    -83.74350331	    -15.71467420	      2.26300375	     -3.29314883	      2.23338336	      0.03257170	      0.00160933	     -0.02066019	      0.00823393	     -0.00050818	      0.01294119	     -0.03257170	     -0.00160933	      0.02066019	     -0.00008138	      0.00098125	     -0.00005149	   -873.51609453	   -384.64991831	    302.42224485	     -8.22974390	     21.04319350	      3.18780518	    873.51609453	    384.64991831	   -302.42224485	    128.53641445	    -15.18463453	    351.75733878	   -302.85360263	   -146.55439109	    -90.06081821	      4.78359733	    -10.78290468	      1.46900733	    302.85360263	    146.55439109	     90.06081821	    -39.90908023	      7.52538297	    121.95073694	     -2.71408743	      0.00000000	    976.67965019	    636.36634833	     32.57610791	     20.18182315	      0.00000000	      0.00000000	      0.00000000	      0.00000000	      0.00000000	      0.00000000	      0.00000001	      0.00000000
      0.20972025	      9.70942428	      7.14636462	      7.67172590	      3.32093457	      3.89765071	      4.10504993	      0.00000000	    163.84057832	    181.69702618	    336.97024539	    122.29713349	      7.09957735	      5.16149989	      3.67605146	      3.10739961	      5.17004114	      3.38236519	      2.80021099	     92.62560511	      4.61212136	      7.01354276	      5.25718803	     25.34459227	     16.01989263	      4.55177188	      3.29366251	      5.56966069	    114.46218178	     40.28466546	     74.07123984	     55.43739151	      0.00000000	      0.00000000	      0.00000000	      0.00000000	      0.00000000	      0.00000000	     35.80296751	      1.27184882	      2.98564581	     22.67116449	     48.66660988	     11.89287453	      9.70942428	      7.14636462	      7.67172590	      3.32093457	      3.89765071	      4.10504993	     10.58924334	      5.24098055	     10.25589894	      9.05827529	      1.89616605	      7.09957735	      5.16149989	      3.67605146	      3.10739961	      5.17004114	      4.82934632	      2.80021099	      1.95234349	      4.61212136	      7.01354276	      5.25718803	     25.34459227	     16.01989263	      4.55177188	      3.29366251	      5.56966069	     14.19394558	      0.00000000	      0.00000000	      0.00000000	     19.32309449	      9.02657146	     42.95894534	     47.26573323	      4.17274491	      3.63401775	     11.12202353	      5.88480514	     15.82359032	      2.47804507	      7.86821333	      2.52019407	     31.24839143	     31.24839143	     11.46816323	     11.46816323	     29.02467266	     29.02467266	    111.82294723	     84.60549150	     13.85370739	     -7.50377991	      2.66309365	     44.17263804	   -111.82294723	    -84.60549150	    -13.85370739	      2.26699657	     -3.34002289	      2.23114832	      0.02658474	     -0.00032377	     -0.01667786	      0.00662993	     -0.00041326	      0.01057591	     -0.02658474	      0.00032377	      0.01667786	     -0.00005251	      0.00079459	     -0.00009882	   -861.88778145	   -374.63050979	    300.42096639	     -8.06768241	     20.83758069	      3.02691922	    861.88778145	    374.63050979	   -300.42096639	    127.57114218	    -14.99891973	    347.10148100	   -299.73694436	   -143.15791366	    -87.68249428	      4.66217941	    -10.61658212	      1.40396544	    299.73694436	    143.15791366	     87.68249428	    -38.86194298	      7.42963151	    120.70900495	     -2.29430026	      0.00000000	    977.90954809	    634.62703071	     30.94389969	     18.27568850	      0.00000000	      0.00000000	      0.00000000	      0.00000000	      0.00000000	      0.00000000	      0.00000001	      0.00000000
